<?xml version="1.0" encoding="UTF-8" standalone="no"?>
<!-- Created with Inkscape (http://www.inkscape.org/) -->

<svg
   xmlns:dc="http://purl.org/dc/elements/1.1/"
   xmlns:cc="http://creativecommons.org/ns#"
   xmlns:rdf="http://www.w3.org/1999/02/22-rdf-syntax-ns#"
   xmlns:svg="http://www.w3.org/2000/svg"
   xmlns="http://www.w3.org/2000/svg"
   xmlns:sodipodi="http://sodipodi.sourceforge.net/DTD/sodipodi-0.dtd"
   xmlns:inkscape="http://www.inkscape.org/namespaces/inkscape"
   width="62.994007"
   height="29.23171"
   id="svg2"
   version="1.1"
   inkscape:version="0.47pre4 r22446"
   sodipodi:docname="ptsa.svg">
  <sodipodi:namedview
     id="base"
     pagecolor="#ffffff"
     bordercolor="#666666"
     borderopacity="1.0"
     inkscape:pageopacity="0.0"
     inkscape:pageshadow="2"
     inkscape:zoom="3.959798"
     inkscape:cx="-6.4673539"
     inkscape:cy="-0.49079764"
     inkscape:document-units="px"
     inkscape:current-layer="text7545"
     showgrid="false"
     inkscape:window-width="1440"
     inkscape:window-height="850"
     inkscape:window-x="-4"
     inkscape:window-y="-3"
     inkscape:window-maximized="1" />
  <defs
     id="defs4">
    <marker
       style="overflow:visible"
       id="TriangleOutS"
       refX="0"
       refY="0"
       orient="auto"
       inkscape:stockid="TriangleOutS">
      <path
         transform="scale(0.2,0.2)"
         style="fill-rule:evenodd;stroke:#000000;stroke-width:1pt;marker-start:none"
         d="m 5.77,0 -8.65,5 0,-10 8.65,5 z"
         id="path5034" />
    </marker>
    <marker
       style="overflow:visible"
       id="Tail"
       refX="0"
       refY="0"
       orient="auto"
       inkscape:stockid="Tail">
      <g
         transform="scale(-1.2,-1.2)"
         id="g4921">
        <path
           style="fill:none;stroke:#000000;stroke-width:0.80000001;stroke-linecap:round;marker-start:none;marker-end:none"
           d="M -3.8048674,-3.9585227 0.54352094,0"
           id="path4923" />
        <path
           style="fill:none;stroke:#000000;stroke-width:0.80000001;stroke-linecap:round;marker-start:none;marker-end:none"
           d="M -1.2866832,-3.9585227 3.0617053,0"
           id="path4925" />
        <path
           style="fill:none;stroke:#000000;stroke-width:0.80000001;stroke-linecap:round;marker-start:none;marker-end:none"
           d="M 1.3053582,-3.9585227 5.6537466,0"
           id="path4927" />
        <path
           style="fill:none;stroke:#000000;stroke-width:0.80000001;stroke-linecap:round;marker-start:none;marker-end:none"
           d="M -3.8048674,4.1775838 0.54352094,0.21974226"
           id="path4929" />
        <path
           style="fill:none;stroke:#000000;stroke-width:0.80000001;stroke-linecap:round;marker-start:none;marker-end:none"
           d="M -1.2866832,4.1775838 3.0617053,0.21974226"
           id="path4931" />
        <path
           style="fill:none;stroke:#000000;stroke-width:0.80000001;stroke-linecap:round;marker-start:none;marker-end:none"
           d="M 1.3053582,4.1775838 5.6537466,0.21974226"
           id="path4933" />
      </g>
    </marker>
    <marker
       style="overflow:visible"
       id="Arrow1Send"
       refX="0"
       refY="0"
       orient="auto"
       inkscape:stockid="Arrow1Send">
      <path
         transform="matrix(-0.2,0,0,-0.2,-1.2,0)"
         style="fill-rule:evenodd;stroke:#000000;stroke-width:1pt;marker-start:none"
         d="M 0,0 5,-5 -12.5,0 5,5 0,0 z"
         id="path4900" />
    </marker>
    <marker
       style="overflow:visible"
       id="Arrow2Send"
       refX="0"
       refY="0"
       orient="auto"
       inkscape:stockid="Arrow2Send">
      <path
         transform="matrix(-0.3,0,0,-0.3,0.69,0)"
         d="M 8.7185878,4.0337352 -2.2072895,0.01601326 8.7185884,-4.0017078 c -1.7454984,2.3720609 -1.7354408,5.6174519 -6e-7,8.035443 z"
         style="font-size:12px;fill-rule:evenodd;stroke-width:0.625;stroke-linejoin:round"
         id="path4918" />
    </marker>
    <marker
       style="overflow:visible"
       id="Arrow2Lend"
       refX="0"
       refY="0"
       orient="auto"
       inkscape:stockid="Arrow2Lend">
      <path
         transform="matrix(-1.1,0,0,-1.1,-1.1,0)"
         d="M 8.7185878,4.0337352 -2.2072895,0.01601326 8.7185884,-4.0017078 c -1.7454984,2.3720609 -1.7354408,5.6174519 -6e-7,8.035443 z"
         style="font-size:12px;fill-rule:evenodd;stroke-width:0.625;stroke-linejoin:round"
         id="path4906" />
    </marker>
    <marker
       style="overflow:visible"
       id="DotL"
       refX="0"
       refY="0"
       orient="auto"
       inkscape:stockid="DotL">
      <path
         transform="matrix(0.8,0,0,0.8,5.92,0.8)"
         style="fill-rule:evenodd;stroke:#000000;stroke-width:1pt;marker-start:none;marker-end:none"
         d="m -2.5,-1 c 0,2.76 -2.24,5 -5,5 -2.76,0 -5,-2.24 -5,-5 0,-2.76 2.24,-5 5,-5 2.76,0 5,2.24 5,5 z"
         id="path4947" />
    </marker>
    <marker
       style="overflow:visible"
       id="DotM"
       refX="0"
       refY="0"
       orient="auto"
       inkscape:stockid="DotM">
      <path
         transform="matrix(0.4,0,0,0.4,2.96,0.4)"
         style="fill-rule:evenodd;stroke:#000000;stroke-width:1pt;marker-start:none;marker-end:none"
         d="m -2.5,-1 c 0,2.76 -2.24,5 -5,5 -2.76,0 -5,-2.24 -5,-5 0,-2.76 2.24,-5 5,-5 2.76,0 5,2.24 5,5 z"
         id="path4950" />
    </marker>
    <inkscape:perspective
       id="perspective10"
       inkscape:persp3d-origin="372.04724 : 350.78739 : 1"
       inkscape:vp_z="744.09448 : 526.18109 : 1"
       inkscape:vp_y="0 : 1000 : 0"
       inkscape:vp_x="0 : 526.18109 : 1"
       sodipodi:type="inkscape:persp3d" />
    <inkscape:perspective
       sodipodi:type="inkscape:persp3d"
       inkscape:vp_x="0 : 0.5 : 1"
       inkscape:vp_y="0 : 1000 : 0"
       inkscape:vp_z="1 : 0.5 : 1"
       inkscape:persp3d-origin="0.5 : 0.33333333 : 1"
       id="perspective7317" />
    <marker
       style="overflow:visible"
       id="TriangleOutS-6"
       refX="0"
       refY="0"
       orient="auto"
       inkscape:stockid="TriangleOutS">
      <path
         transform="scale(0.2,0.2)"
         style="fill-rule:evenodd;stroke:#000000;stroke-width:1pt;marker-start:none"
         d="m 5.77,0 -8.65,5 0,-10 8.65,5 z"
         id="path5034-9" />
    </marker>
    <marker
       style="overflow:visible"
       id="TriangleOutSR"
       refX="0"
       refY="0"
       orient="auto"
       inkscape:stockid="TriangleOutSR">
      <path
         transform="scale(0.2,0.2)"
         style="marker-start:none;stroke:#11557c;stroke-width:1pt;fill:#11557c;fill-rule:evenodd"
         d="m 5.77,0 -8.65,5 0,-10 8.65,5 z"
         id="path3721" />
    </marker>
  </defs>
  <metadata
     id="metadata7">
    <rdf:RDF>
      <cc:Work
         rdf:about="">
        <dc:format>image/svg+xml</dc:format>
        <dc:type
           rdf:resource="http://purl.org/dc/dcmitype/StillImage" />
        <dc:title></dc:title>
      </cc:Work>
    </rdf:RDF>
  </metadata>
  <g
     transform="translate(-27.986187,-190.47047)"
     id="layer1"
     inkscape:groupmode="layer"
     inkscape:label="Layer 1">
    <g
       id="text2816"
       style="font-size:40px;font-style:normal;font-variant:normal;font-weight:normal;font-stretch:normal;text-align:start;line-height:125%;writing-mode:lr-tb;text-anchor:start;fill:#000000;fill-opacity:1;stroke:none;font-family:Amplitude BRK;-inkscape-font-specification:Amplitude BRK">
      <text
         sodipodi:linespacing="125%"
         id="text4102"
         y="228.83533"
         x="182.33253"
         style="font-size:40px;font-style:normal;font-variant:normal;font-weight:normal;font-stretch:normal;text-align:start;line-height:125%;writing-mode:lr-tb;text-anchor:start;fill:#000000;fill-opacity:1;stroke:none;font-family:Amplitude BRK;-inkscape-font-specification:Amplitude BRK"
         xml:space="preserve"><tspan
           y="228.83533"
           x="182.33253"
           id="tspan4104"
           sodipodi:role="line" /></text>
      <g
         id="g7558">
        <path
           style="stroke-linejoin:round;marker-end:url(#TriangleOutSR);stroke-opacity:1;marker-start:none;stroke:#11557c;stroke-linecap:round;stroke-miterlimit:4;stroke-dasharray:none;stroke-width:3.4;fill:none"
           d="m 44.292181,194.94316 29.884008,0"
           id="path4108" />
        <path
           style="font-size:40px;font-style:normal;font-variant:normal;font-weight:normal;font-stretch:normal;text-align:start;line-height:125%;writing-mode:lr-tb;text-anchor:start;fill:none;stroke:#11557c;stroke-width:3.4;stroke-linecap:round;stroke-linejoin:round;stroke-miterlimit:4;stroke-opacity:1;stroke-dasharray:none;marker-start:none;marker-end:none;font-family:Amplitude BRK;-inkscape-font-specification:Amplitude BRK"
           d="m 50.71697,209.03027 0,-16.8598"
           id="path4108-4" />
        <g
           style="fill:#000000;font-family:Amplitude BRK;-inkscape-font-specification:Amplitude BRK;stroke-width:3.4;stroke-miterlimit:4;stroke-dasharray:none"
           id="text7545">
          <path
             d="m 47.986187,209.22218 c -2e-5,1.57334 -0.546687,2.90667 -1.64,4 -1.093351,1.09334 -2.440016,1.64 -4.04,1.64 l -5.32,0 c -0.826675,0 -1.600008,-0.16 -2.32,-0.48 -7e-6,0.90667 0.133326,1.57333 0.4,2 l 1.24,0 c 0.479991,0 0.87999,0.16 1.2,0.48 0.31999,0.32 0.47999,0.72 0.48,1.2 -1e-5,0.45333 -0.16001,0.84 -0.48,1.16 -0.32001,0.32 -0.720009,0.48 -1.2,0.48 l -1.64,0 c -0.61334,0 -1.173339,-0.21334 -1.68,-0.64 -0.506672,0.42666 -1.066671,0.64 -1.68,0.64 l -1.64,0 c -0.453335,0 -0.853335,-0.16 -1.2,-0.48 -0.320001,-0.29333 -0.48,-0.68 -0.48,-1.16 0,-0.48 0.159999,-0.88 0.48,-1.2 0.319999,-0.32 0.719998,-0.48 1.2,-0.48 l 1.24,0 c 0.08,-0.18667 0.159997,-0.49333 0.24,-0.92 0.106663,-0.4 0.159996,-0.81333 0.16,-1.24 l 0,-10.36 c -4e-6,-0.55999 -0.04,-1.01332 -0.12,-1.36 -0.05334,-0.37332 -0.14667,-0.69332 -0.28,-0.96 l -1.24,0 c -0.480002,2e-5 -0.880001,-0.15998 -1.2,-0.48 -0.320001,-0.31998 -0.48,-0.71998 -0.48,-1.2 0,-0.45332 0.159999,-0.83998 0.48,-1.16 0.319999,-0.31998 0.719998,-0.47998 1.2,-0.48 l 1.64,0 c 0.826662,2e-5 1.546661,0.40002 2.16,1.2 1.039993,-0.79998 2.213325,-1.19998 3.52,-1.2 l 5.32,0 c 1.493317,2e-5 2.826649,0.54669 4,1.64 1.11998,1.09335 1.67998,2.42668 1.68,4 l 0,5.36 m -3.32,-5.36 c -1.7e-5,-0.63999 -0.226684,-1.18665 -0.68,-1.64 -0.453349,-0.45332 -1.013349,-0.67998 -1.68,-0.68 l -5.32,0 c -0.640009,2e-5 -1.186675,0.22668 -1.64,0.68 -0.453341,0.45335 -0.680007,1.00001 -0.68,1.64 l 0,5.36 c -7e-6,0.64001 0.226659,1.18667 0.68,1.64 0.453325,0.45334 0.999991,0.68001 1.64,0.68 l 5.32,0 c 0.613318,1e-5 1.159984,-0.22666 1.64,-0.68 0.479983,-0.45333 0.719983,-0.99999 0.72,-1.64 l 0,-5.36 0,0"
             id="path7550"
             style="stroke:none;stroke-opacity:1;stroke-width:1;stroke-miterlimit:4;stroke-dasharray:none;fill:#11557c;fill-opacity:1" />
          <path
             d="m 65.719643,211.54218 c -2e-5,0.98667 1.47998,1.78667 0.44,2.4 -1.040018,0.61334 -0.41335,0.92 -2.12,0.92 l -9.32,0 c -1.493341,0 -2.826673,-0.54666 -4,-1.64 -1.120004,-1.06666 -1.680004,-2.39999 -1.68,-4 l 3.36,0 c -7e-6,0.64001 0.226659,1.18667 0.68,1.64 0.453325,0.45334 0.999991,0.68001 1.64,0.68 l 5.32,0"
             id="path7552"
             sodipodi:nodetypes="cscccccscc"
             style="stroke-width:3.39999999999999991;stroke-miterlimit:4;stroke-dasharray:none;fill:#11557c;fill-opacity:1" />
          <path
             d="m 69.922143,201.54218 c -1.7e-5,0.45335 -0.160017,0.85335 -0.48,1.2 -0.29335,0.32001 -0.680016,0.48001 -1.16,0.48 -0.426682,1e-5 -0.800015,-0.13332 -1.12,-0.4 -0.293347,-0.29332 -0.46668,-0.65332 -0.52,-1.08 -0.293347,-0.0533 -0.640013,-0.0933 -1.04,-0.12 -0.373346,-0.0533 -0.813345,-0.08 -1.32,-0.08 l -5.36,0 c -0.640005,2e-5 -1.186672,0.16002 -1.64,0.48 -0.453337,0.32002 -0.680004,0.72001 -0.68,1.2 -4e-6,0.45335 0.226663,0.84001 0.68,1.16 0.453328,0.32001 0.999995,0.48001 1.64,0.48 l 5.36,0 c 1.57332,1e-5 2.906652,0.48001 4,1.44 1.093317,0.96001 1.639983,2.14668 1.64,3.56 -1.7e-5,1.38667 -0.560016,2.57334 -1.68,3.56 -1.093348,0.96 -2.413346,1.44 -3.96,1.44 l 0,-1.42857 0,-1.89143 c 0.639988,1e-5 1.186654,-0.15999 1.64,-0.48 0.45332,-0.31999 0.679986,-0.71999 0.68,-1.2 -1.4e-5,-0.45333 -0.22668,-0.83999 -0.68,-1.16 -0.453346,-0.31999 -1.000012,-0.47999 -1.64,-0.48 l -5.36,0 c -1.600004,1e-5 -2.933336,-0.47999 -4,-1.44 -1.093334,-0.95999 -1.64,-2.14665 -1.64,-3.56 0,-1.38665 0.546666,-2.55998 1.64,-3.52 1.066664,-0.98665 2.399996,-1.47998 4,-1.48 l 5.36,0 c 2.266653,2e-5 3.839985,0.28002 4.72,0.84 0.613317,0.37335 0.919983,0.92002 0.92,1.64 l 0,0.84"
             id="path7554"
             sodipodi:nodetypes="csscccccsssccssscccssscccscccccc"
             style="stroke-width:3.39999999999999991;stroke-miterlimit:4;stroke-dasharray:none;fill:#11557c;fill-opacity:1" />
          <path
             d="m 90.980194,213.22218 c -2e-5,0.45334 -0.16002,0.84 -0.48,1.16 -0.32002,0.32 -0.72002,0.48 -1.2,0.48 l -1.64,0 c -0.85335,0 -1.57335,-0.4 -2.16,-1.2 -1.04002,0.8 -2.213348,1.2 -3.520002,1.2 l -5.32,0 c -1.493338,0 -2.82667,-0.54666 -4,-1.64 -1.120001,-1.06666 -1.68,-2.39999 -1.68,-4 l 0,-0.36 c 0,-1.57332 0.546666,-2.90666 1.64,-4 1.09333,-1.09332 2.439996,-1.63999 4.04,-1.64 l 5.32,0 c 0.826654,1e-5 1.599992,0.16001 2.320002,0.48 -2e-5,-0.58665 -0.16002,-1.09332 -0.48,-1.52 -0.32001,-0.42665 -0.706681,-0.63998 -1.160002,-0.64 l -3.36,0 c -0.453342,2e-5 -0.840008,-0.15998 -1.16,-0.48 -0.320007,-0.31998 -0.480007,-0.71998 -0.48,-1.2 -7e-6,-0.45332 0.159993,-0.83998 0.48,-1.16 0.319992,-0.31998 0.706658,-0.47998 1.16,-0.48 l 3.36,0 c 1.386652,2e-5 2.559982,0.56002 3.520002,1.68 0.98665,1.06668 1.47998,2.38668 1.48,3.96 l 0,5.36 c -2e-5,0.56001 0.0266,1.02667 0.08,1.4 0.08,0.34667 0.18665,0.65334 0.32,0.92 l 1.24,0 c 0.47998,1e-5 0.87998,0.16001 1.2,0.48 0.31998,0.32001 0.47998,0.72 0.48,1.2 m -6.68,-4.36 c -2e-5,-0.63999 -0.22668,-1.18666 -0.68,-1.64 -0.453348,-0.45332 -1.000014,-0.67999 -1.640002,-0.68 l -5.32,0 c -0.666672,1e-5 -1.226672,0.22668 -1.68,0.68 -0.453337,0.45334 -0.680004,1.00001 -0.68,1.64 l 0,0.36 c -4e-6,0.64001 0.226663,1.18667 0.68,1.64 0.453328,0.45334 1.013328,0.68001 1.68,0.68 l 5.32,0 c 0.639988,1e-5 1.186654,-0.22666 1.640002,-0.68 0.45332,-0.45333 0.67998,-0.99999 0.68,-1.64 l 0,-0.36"
             id="path7556"
             style="stroke-width:3.39999999999999991;stroke-miterlimit:4;stroke-dasharray:none;fill:#11557c;fill-opacity:1" />
        </g>
      </g>
    </g>
  </g>
</svg>
